{
    "asset" : {
        "generator" : "Khronos glTF Blender I/O v1.0.5",
        "version" : "2.0"
    },
    "scene" : 0,
    "scenes" : [
        {
            "name" : "Scene",
            "nodes" : [
                0
            ]
        }
    ],
    "nodes" : [
        {
            "mesh" : 0,
            "name" : "Lumbar.Low",
            "rotation" : [
                0.7063618898391724,
                -0.032449837774038315,
                -0.03244984894990921,
                0.7063617706298828
            ]
        }
    ],
    "materials" : [
        {
            "doubleSided" : true,
            "name" : "Material.005",
            "normalTexture" : {
                "index" : 0,
                "texCoord" : 0
            },
            "pbrMetallicRoughness" : {
                "baseColorFactor" : [
                    0.8000000715255737,
                    0.7717677354812622,
                    0.7594353556632996,
                    1
                ],
                "metallicFactor" : 0,
                "roughnessFactor" : 0.5
            }
        }
    ],
    "meshes" : [
        {
            "name" : "Lumbar.001",
            "primitives" : [
                {
                    "attributes" : {
                        "POSITION" : 0,
                        "NORMAL" : 1,
                        "TEXCOORD_0" : 2
                    },
                    "indices" : 3,
                    "material" : 0
                }
            ]
        }
    ],
    "textures" : [
        {
            "source" : 0
        }
    ],
    "images" : [
        {
            "mimeType" : "image/png",
            "name" : "Image_0",
            "uri" : "Image_0.png"
        }
    ],
    "accessors" : [
        {
            "bufferView" : 0,
            "componentType" : 5126,
            "count" : 5711,
            "max" : [
                40.13412094116211,
                34.23928451538086,
                22.1142578125
            ],
            "min" : [
                -25.05270004272461,
                -34.73102569580078,
                -33.44688034057617
            ],
            "type" : "VEC3"
        },
        {
            "bufferView" : 1,
            "componentType" : 5126,
            "count" : 5711,
            "type" : "VEC3"
        },
        {
            "bufferView" : 2,
            "componentType" : 5126,
            "count" : 5711,
            "type" : "VEC2"
        },
        {
            "bufferView" : 3,
            "componentType" : 5123,
            "count" : 24144,
            "type" : "SCALAR"
        }
    ],
    "bufferViews" : [
        {
            "buffer" : 0,
            "byteLength" : 68532,
            "byteOffset" : 0
        },
        {
            "buffer" : 0,
            "byteLength" : 68532,
            "byteOffset" : 68532
        },
        {
            "buffer" : 0,
            "byteLength" : 45688,
            "byteOffset" : 137064
        },
        {
            "buffer" : 0,
            "byteLength" : 48288,
            "byteOffset" : 182752
        }
    ],
    "buffers" : [
        {
            "byteLength" : 231040,
            "uri" : "Lumbar.bin"
        }
    ]
}
